<svg xmlns="http://www.w3.org/2000/svg" width="32" height="32" viewBox="0 0 32 32">
  <path id="Path_6" data-name="Path 6" d="M396.379,1412.365l5.5,2.5h0a1.483,1.483,0,0,0,.621.135,1.5,1.5,0,0,0,.621-2.865l-5.5-2.5a1.5,1.5,0,1,0-1.242,2.73m0,5.5,5.5,2.5a1.483,1.483,0,0,0,.621.135,1.5,1.5,0,0,0,.621-2.865l-5.5-2.5A1.471,1.471,0,0,0,397,1415a1.5,1.5,0,0,0-.621,2.865m0-11,5.5,2.5a1.483,1.483,0,0,0,.621.135,1.5,1.5,0,0,0,.621-2.865l-5.5-2.5A1.471,1.471,0,0,0,397,1404a1.5,1.5,0,0,0-.621,2.865M421.5,1396a1.477,1.477,0,0,0-.573.115h0l-.013.005L407,1401.876l-13.911-5.756-.013-.005h0a1.477,1.477,0,0,0-.573-.115,1.5,1.5,0,0,0-1.5,1.5v23a1.5,1.5,0,0,0,.935,1.39l14.471,5.988a1.508,1.508,0,0,0,1.188,0l14.47-5.988a1.5,1.5,0,0,0,.936-1.39v-23a1.5,1.5,0,0,0-1.5-1.5m-16,28.255L394,1419.5v-19.752l11.5,4.759ZM420,1419.5l-11.5,4.759V1404.5l11.5-4.759Zm-8.5-10a1.486,1.486,0,0,0,.621-.135l5.5-2.5A1.5,1.5,0,0,0,417,1404a1.468,1.468,0,0,0-.621.135l-5.5,2.5a1.5,1.5,0,0,0,.621,2.865m0,11a1.486,1.486,0,0,0,.621-.135l5.5-2.5A1.5,1.5,0,0,0,417,1415a1.468,1.468,0,0,0-.621.135l-5.5,2.5a1.5,1.5,0,0,0,.621,2.865m0-5.5a1.486,1.486,0,0,0,.621-.135h0l5.5-2.5A1.5,1.5,0,0,0,417,1409.5a1.483,1.483,0,0,0-.621.135l-5.5,2.5A1.5,1.5,0,0,0,411.5,1415" transform="translate(-391 -1396)" fill="#95e1d3" fill-rule="evenodd"/>
</svg>
