<svg xmlns="http://www.w3.org/2000/svg" width="32" height="30.5" viewBox="0 0 32 30.5">
  <path id="Path_3" data-name="Path 3" d="M412,1241.5h-4.5V1235a1.5,1.5,0,0,0-3,0v8a1.5,1.5,0,0,0,1.5,1.5h6a1.5,1.5,0,0,0,0-3m-6-13a14.484,14.484,0,0,0-10.548,24.427l-2.012,2.012a1.5,1.5,0,1,0,2.121,2.121l2.163-2.163a14.457,14.457,0,0,0,16.566-.01l2.179,2.178a1.483,1.483,0,0,0,2.1-2.1l-2.028-2.028A14.486,14.486,0,0,0,406,1228.5m0,26a11.5,11.5,0,1,1,11.5-11.5,11.5,11.5,0,0,1-11.5,11.5m-6.294-26.213a5.994,5.994,0,0,0-8.418,8.418,16.056,16.056,0,0,1,8.418-8.418m16.42-1.287a5.842,5.842,0,0,0-3.628,1.26,15.717,15.717,0,0,1,8.242,8.243,5.869,5.869,0,0,0-4.614-9.5" transform="translate(-390 -1227)" fill="#95e1d3" fill-rule="evenodd"/>
</svg>
