<svg xmlns="http://www.w3.org/2000/svg" width="32" height="32" viewBox="0 0 32 32">
  <path id="Path_4" data-name="Path 4" d="M797,1245.017a1.5,1.5,0,0,0,.847-.262l3.135-1.96,6.657,4.438a1.5,1.5,0,0,0,1.739-.012h0l8.5-6h0a1.5,1.5,0,1,0-1.763-2.425l-7.638,5.391-6.631-4.42-.006.008a1.5,1.5,0,0,0-1.625-.035h0l-4,2.5v0a1.5,1.5,0,0,0,.785,2.778M821.5,1226h-29a1.5,1.5,0,0,0-1.5,1.5v29a1.5,1.5,0,0,0,1.5,1.5h29a1.5,1.5,0,0,0,1.5-1.5v-29a1.5,1.5,0,0,0-1.5-1.5m-1.5,29H794v-26h26Z" transform="translate(-791 -1226)" fill="#95e1d3" fill-rule="evenodd"/>
</svg>
