<svg xmlns="http://www.w3.org/2000/svg" width="32" height="30.5" viewBox="0 0 32 30.5">
  <path id="Path_7" data-name="Path 7" d="M793,1415v10.5a1.5,1.5,0,0,0,1.5,1.5h14v-12h6v12h3a1.5,1.5,0,0,0,1.5-1.5V1415l-13-13Zm10.5,6h-6v-6h6Zm18.094-9.52,0,0-5.6-5.6V1401.5a1.5,1.5,0,0,0-3,0v1.378l-5.9-5.9h0a1.5,1.5,0,0,0-.933-.468h-.005l-.067-.005h-.013c-.026,0-.052,0-.079,0a1.5,1.5,0,0,0-1.082.46l-14.458,14.459a1.5,1.5,0,1,0,2.093,2.149h0L806,1400.122l.038.037,13.438,13.439,0,0a1.5,1.5,0,0,0,2.114-2.114" transform="translate(-790 -1396.5)" fill="#95e1d3" fill-rule="evenodd"/>
</svg>
