<svg xmlns="http://www.w3.org/2000/svg" width="32" height="32" viewBox="0 0 32 32">
  <path id="Path_9" data-name="Path 9" d="M1210,1403.5h4.5v4.5a1.5,1.5,0,0,0,3,0v-7.5H1210a1.5,1.5,0,0,0,0,3m0,20h7.5V1416a1.5,1.5,0,0,0-3,0v4.5H1210a1.5,1.5,0,0,0,0,3m10.5-27.5h-29a1.5,1.5,0,0,0-1.5,1.5v29a1.5,1.5,0,0,0,1.5,1.5h29a1.5,1.5,0,0,0,1.5-1.5v-29a1.5,1.5,0,0,0-1.5-1.5m-1.5,29h-26v-26h26Zm-23-15.5a1.5,1.5,0,0,0,1.5-1.5v-4.5h4.5a1.5,1.5,0,0,0,0-3h-7.5v7.5a1.5,1.5,0,0,0,1.5,1.5m6,14h0a1.5,1.5,0,0,0,0-3h-4.5V1416a1.5,1.5,0,0,0-3,0v7.5h7.5Z" transform="translate(-1190 -1396)" fill="#95e1d3" fill-rule="evenodd"/>
</svg>
